<?xml version="1.0" encoding="UTF-8"?>
<svg id="katman_2" xmlns="http://www.w3.org/2000/svg" version="1.1" viewBox="0 0 89.9 49.8">
  <!-- Generator: Adobe Illustrator 29.6.1, SVG Export Plug-In . SVG Version: 2.1.1 Build 9)  -->
  <defs>
    <style>
      .st0 {
        fill: #fff;
      }
    </style>
  </defs>
  <g id="katman_1">
    <g id="gdgrenkli">
      <path class="st0" d="M9.8,35.1c-1.6-1.1-3.1-2.2-4.6-3.3-2.6-2-3.8-4.6-3.6-7.8.2-3.4,3.3-6.9,6.7-7.6,2.6-.5,5,0,7.2,1.5,6.6,4.8,13.2,9.5,19.8,14.3,2.8,2,4,4.8,3.7,8.1-.4,4-3.3,6.8-7,7.5-2.5.5-4.6-.2-6.6-1.6-5.2-3.7-10.4-7.5-15.6-11.2h0Z"/>
      <path class="st0" d="M12.1,13c4.5-3.2,9-6.4,13.4-9.6,4.1-2.9,10.5-1.7,12.8,3.3,1.6,3.6.9,7.9-2.5,10.5-3,2.3-6.1,4.4-9.1,6.6,0,0-.1,0-.2.1-3.2-2.3-6.5-4.6-9.7-7-1.9-1.4-3.9-2.2-6.3-2.1-.1,0-.2,0-.5,0,.8-.6,1.5-1.1,2.2-1.6h0Z"/>
      <path class="st0" d="M88.1,25c-.1,3.4-1.6,6-4.6,7.5-3,1.6-6.1,1.4-8.9-.6-5.5-3.9-10.9-7.8-16.3-11.7-1.4-1-2.8-2-4.2-3-2.8-2.2-4-5.2-3.2-8.7.8-3.5,3.1-5.8,6.6-6.6,2.2-.5,4.5-.2,6.5,1.2,6.9,5,13.9,9.9,20.8,15,2.2,1.6,3.3,4,3.3,6.8h0Z"/>
      <path class="st0" d="M56.6,47.7c-2.9-1-4.7-3-5.6-5.8-1-3.1.2-7,2.9-9.1,2.5-1.9,5.1-3.7,7.7-5.5.6-.4,1.1-.8,1.8-1.3,1.7,1.2,3.3,2.4,5,3.6,1.9,1.4,3.8,2.7,5.7,4,1.7,1.1,3.6,1.6,5.8,1.7-1.2.8-2.1,1.5-3.1,2.2-4,2.9-8.1,5.8-12.1,8.7-1.7,1.2-3.5,1.9-5.6,1.8-.8,0-1.5-.2-2.3-.4h0Z"/>
    </g>
  </g>
</svg>