<?xml version="1.0" encoding="UTF-8"?>
<svg id="katman_2" xmlns="http://www.w3.org/2000/svg" version="1.1" viewBox="0 0 89.9 49.8">
  <!-- Generator: Adobe Illustrator 29.6.1, SVG Export Plug-In . SVG Version: 2.1.1 Build 9)  -->
  <defs>
    <style>
      .st0 {
        fill: #32a853;
      }

      .st1 {
        fill: #101110;
      }

      .st2 {
        fill: #517cbe;
      }

      .st3 {
        fill: #f8aa09;
      }

      .st4 {
        fill: #101011;
      }

      .st5 {
        fill: #e84436;
      }
    </style>
  </defs>
  <g id="katman_1">
    <g id="gdgrenkli">
      <path class="st4" d="M32.2,0c.8.2,1.6.4,2.4.8,2.9,1.2,4.8,3.2,5.8,6.2,1.4,4.2.5,7.9-2.7,11-1.1,1.1-2.5,1.9-3.8,2.9-1.9,1.4-3.8,2.7-5.7,4.1,3.1,2.2,6.2,4.4,9.2,6.7,1.9,1.5,2.9,3.6,3.3,6,.4,2.5,0,4.8-1.2,7-1.5,2.7-3.9,4.4-7,5-3.5.7-6.5-.4-9.2-2.5-4.4-3.3-8.8-6.4-13.2-9.6-2-1.4-4-2.8-6-4.3C2,31.6.5,29.5,0,26.7c0-1.1,0-2.2,0-3.5.4-2.8,1.8-5,3.9-6.6,3.2-2.4,6.4-4.6,9.6-6.9,2.3-1.7,4.6-3.3,7-5,1.7-1.2,3.5-2.5,5.3-3.6.9-.5,2-.7,3-1.1h3.4M9.9,35.2c5.2,3.7,10.4,7.5,15.6,11.2,2,1.4,4.1,2.1,6.6,1.6,3.8-.8,6.6-3.5,7-7.5.3-3.3-.9-6.1-3.7-8.1-6.6-4.8-13.2-9.5-19.8-14.3-2.2-1.6-4.6-2-7.2-1.5-3.4.6-6.5,4.2-6.7,7.6-.2,3.2,1,5.8,3.6,7.8,1.5,1.1,3,2.2,4.6,3.3M12.1,13c-.6.5-1.3,1-2.1,1.6.3,0,.4,0,.5,0,2.4-.1,4.4.8,6.3,2.1,3.2,2.4,6.5,4.7,9.7,7,.1,0,.2,0,.2-.1,3-2.2,6.1-4.3,9.1-6.6,3.4-2.6,4.1-6.9,2.5-10.5-2.3-5-8.7-6.2-12.8-3.3-4.5,3.2-8.9,6.4-13.5,9.7h0Z"/>
      <path class="st1" d="M61,0c1,.3,2,.5,2.7,1,1.8,1.1,3.5,2.3,5.2,3.5,4.4,3.2,8.9,6.4,13.3,9.6,1.7,1.2,3.3,2.4,4.9,3.7,1.6,1.4,2.3,3.2,2.6,5.2.7,3.9-.5,7.2-3.5,9.8-1.5,1.3-3.3,2.4-4.9,3.6-3.3,2.4-6.7,4.8-10,7.2-2.3,1.7-4.6,3.3-6.9,4.9-1.3.8-2.8,1.2-4.3,1.3-2,.1-3.9-.1-5.6-1-3.1-1.6-5.1-4.2-5.5-7.6-.6-4.5,1.1-8.1,4.8-10.7,2.6-1.8,5.2-3.7,7.8-5.6-2.5-1.8-4.9-3.7-7.4-5.4-2.2-1.5-4-3.3-4.8-5.8-1-3.4-.7-6.6,1.4-9.5,1.4-2,3.3-3.3,5.7-3.9.3,0,.6-.1.9-.2,1.2,0,2.3,0,3.6,0M88.1,24.9c0-2.8-1.1-5.1-3.3-6.8-6.9-5-13.8-10-20.8-15-2-1.4-4.3-1.7-6.5-1.2-3.6.7-5.9,3-6.6,6.5-.8,3.5.4,6.5,3.2,8.7,1.3,1.1,2.8,2,4.2,3,5.5,3.9,10.9,7.9,16.4,11.7,2.8,2,5.9,2.1,8.9.6,3-1.5,4.5-4.1,4.6-7.6M56.6,47.7c.8.1,1.5.3,2.2.4,2.1,0,3.9-.6,5.6-1.8,4-2.9,8.1-5.8,12.1-8.7,1-.7,2-1.4,3.1-2.2-2.2-.2-4.1-.6-5.8-1.7-1.9-1.3-3.8-2.7-5.7-4-1.7-1.2-3.4-2.4-5-3.6-.6.5-1.2.9-1.8,1.3-2.6,1.9-5.2,3.6-7.7,5.5-2.7,2.1-4,6-2.9,9.1,1,2.8,2.8,4.8,5.7,5.8h0Z"/>
      <path class="st2" d="M9.8,35.1c-1.6-1.1-3.1-2.2-4.6-3.3-2.6-2-3.8-4.6-3.6-7.8.2-3.4,3.3-6.9,6.7-7.6,2.6-.5,5,0,7.2,1.5,6.6,4.8,13.2,9.5,19.8,14.3,2.8,2,4,4.8,3.7,8.1-.4,4-3.3,6.8-7,7.5-2.5.5-4.6-.2-6.6-1.6-5.2-3.7-10.4-7.5-15.6-11.2h0Z"/>
      <path class="st5" d="M12.1,13c4.5-3.2,9-6.4,13.4-9.6,4.1-2.9,10.5-1.7,12.8,3.3,1.6,3.6.9,7.9-2.5,10.5-3,2.3-6.1,4.4-9.1,6.6,0,0-.1,0-.2.1-3.2-2.3-6.5-4.6-9.7-7-1.9-1.4-3.9-2.2-6.3-2.1-.1,0-.2,0-.5,0,.8-.6,1.5-1.1,2.2-1.6h0Z"/>
      <path class="st0" d="M88.1,25c-.1,3.4-1.6,6-4.6,7.5-3,1.6-6.1,1.4-8.9-.6-5.5-3.9-10.9-7.8-16.3-11.7-1.4-1-2.8-2-4.2-3-2.8-2.2-4-5.2-3.2-8.7.8-3.5,3.1-5.8,6.6-6.6,2.2-.5,4.5-.2,6.5,1.2,6.9,5,13.9,9.9,20.8,15,2.2,1.6,3.3,4,3.3,6.8h0Z"/>
      <path class="st3" d="M56.6,47.7c-2.9-1-4.7-3-5.6-5.8-1-3.1.2-7,2.9-9.1,2.5-1.9,5.1-3.7,7.7-5.5.6-.4,1.1-.8,1.8-1.3,1.7,1.2,3.3,2.4,5,3.6,1.9,1.4,3.8,2.7,5.7,4,1.7,1.1,3.6,1.6,5.8,1.7-1.2.8-2.1,1.5-3.1,2.2-4,2.9-8.1,5.8-12.1,8.7-1.7,1.2-3.5,1.9-5.6,1.8-.8,0-1.5-.2-2.3-.4h0Z"/>
    </g>
  </g>
</svg>