<?xml version="1.0" encoding="UTF-8"?><svg id="katman_2" xmlns="http://www.w3.org/2000/svg" xmlns:xlink="http://www.w3.org/1999/xlink" viewBox="0 0 284.87 269.08"><defs><style>.cls-1{fill:url(#Adsız_degrade_49);fill-rule:evenodd;}</style><linearGradient id="Adsız_degrade_49" x1="142.43" y1="0" x2="142.43" y2="269.08" gradientUnits="userSpaceOnUse"><stop offset="0" stop-color="#6cc3c0"/><stop offset=".5" stop-color="#47c1ee"/><stop offset="1" stop-color="#4f4696"/></linearGradient></defs><g id="katman_1"><path id="skymedya" class="cls-1" d="M100.65,33.66c-.55-.91-3.02-2.48-11.14-7.1-5.74-3.27-14.7-8.4-19.93-11.41-12.96-7.48-13.81-7.9-15.85-7.9-.94,0-2.06.25-2.5.57-1,.7-1.69,3.15-1.37,4.88.38,2.09,7.39,22.1,12.97,37.1,2.41,6.48,4.83,11.56,5.78,12.14,1.41.85,23.5,4.87,27.3,4.98,2.7.06,3.91-.51,4.78-2.28.58-1.19.65-2.73.66-15.57.01-13.46-.03-14.31-.7-15.41ZM92.25,57.28c-.37,0-18.27-2.96-18.31-3.02-.02-.05-.99-2.79-2.14-6.11-1.15-3.31-2.48-7.1-2.96-8.4-.47-1.31-2.03-5.7-3.45-9.76-1.43-4.06-2.69-7.66-2.82-7.99-.14-.35-.08-.55.13-.47.21.08,6.96,3.92,15.03,8.54l14.65,8.4v9.41c.02,5.17-.05,9.4-.13,9.4ZM151.18,76.81c-.56-.09-1.12-.16-1.68-.23-.29-.04-.58-.08-.86-.1-2.09-.23-4.18-.34-6.21-.34-2.96,0-5.88.22-8.74.65l.06-33.93,4.25-4.29h.01c.9-.9,1.75-1.74,2.46-2.44.7-.69,1.28-1.23,1.62-1.55.19-.17.31-.27.35-.29.04.02.16.12.35.29.7.62,2.29,2.18,4.08,3.99l4.25,4.29.06,33.95ZM66.38,144.41c-2.91-1.17-25.65-7.49-26.94-7.49-.7,0-1.73.3-2.29.67-1.97,1.3-36.18,35.67-36.67,36.85-.75,1.79-.62,3.51.33,4.39,2.06,1.93,3.85,1.99,22.47.63,25.08-1.82,32.2-2.66,33.66-3.99,1.03-.93,10.44-20.2,11.95-24.45,1.16-3.29.33-5.47-2.51-6.61ZM54.75,160.22h.01l-3.72,8.06-2.61.23c-7.5.67-32.01,2.17-32.01,1.96,0-.13,5.47-5.6,12.15-12.14s12.22-11.91,12.32-11.92c.68-.08,17.29,5.02,17.42,5.34.09.23-1.52,4.03-3.56,8.47ZM115.37,186.23h-10.55v-7.1c3.25,2.74,6.79,5.13,10.55,7.1ZM121.97,79.81c-6.24,2.32-12.03,5.71-17.15,10.06v-21.43l8.49-8.5c4.67-4.67,8.54-8.5,8.59-8.5.03,0,.06,11.23.07,28.37ZM99.7,78.11v9.06l-3.01.21c-1.66.12-9.17.39-16.71.59-19.3.54-35.2,1.11-35.35,1.26,0,.2,36.25,28.84,38.42,30.36.65.46.51.69-2.32,3.79-1.66,1.82-3.12,3.3-3.25,3.3s-6.65-5.02-14.48-11.14c-7.84-6.13-15.73-12.28-17.53-13.67-1.82-1.39-6.33-4.97-10.04-7.95-5.41-4.35-6.92-5.77-7.63-7.14-1.85-3.6-.24-5.52,5.12-6.11,5.69-.63,25.45-1.56,46.14-2.17,5.23-.15,12.01-.3,15.07-.33l5.57-.06ZM103.55,190.11l-5.47,3.56c-.17.94-.28,1.76-.6,2.67-.85,2.42-7.02,7.94-9.2,10.1-2.05,2.03-4.35,4.27-6.36,6.36-1.76,1.83-5.51,4.97-8.02,3.26-.58-.4-1.01-.8-1.43-1.37-.82-1.09-1.81-4.92-1.79-5.09.04-.41-2.6,7.17.31,9.36.61.46,1.39.67,1.62.71,1.37.3,2.73-.13,4.21-.7,3.53-1.37,7.55-4.57,10.77-6.69,6.89-4.54,13.66-9.33,20.51-14.05,3.12-2.15,6.72-4.48,9.81-6.57.3-.2.68-.62.85-1.12h-14.13c-.11,0-.78-.39-1.09-.45h0ZM93.14,165.78v29.77l-8.59,8.57-8.58,8.58v-77.74l8.31-8.14c.1-.1.19-.19.29-.28-.36,2.63-.54,5.3-.54,8,0,7.91,1.57,15.6,4.66,22.85.15.39.33.77.52,1.15,1.14,2.52,2.45,4.94,3.93,7.24ZM162.79,46.14c-.06.04-.76.3-1.56.59-2.2.79-3.17,2.98-3.39,7.73l-.18,3.66-.87-2.15c-.19-.52-.37-1.05-.55-1.57-.07-1.64-.18-4.2-.23-7.34-.09-4.97.11-6.34-.64-8.23-.71-1.78-2.14-3.28-4.98-6.23l-4.17-4.35-1.77-5.04c-.65-1.84-1.27-3.39-1.66-4.19-.16-.32-.29-.52-.36-.56-.07.04-.19.24-.35.56-.4.8-1.02,2.35-1.66,4.19l-1.77,5.04-4.17,4.35c-2.85,2.95-4.28,4.45-4.99,6.23-.75,1.89-.54,3.26-.63,8.23-.05,3.14-.16,5.7-.24,7.34-.18.52-.36,1.05-.54,1.57l-.88,2.15-.17-3.66c-.23-4.75-1.19-6.94-3.4-7.73-.8-.29-1.5-.56-1.55-.59-.11-.07,7.11-20.26,10.06-28.12,5.5-14.65,6.25-16.18,8.53-17.4.69-.36,1.06-.56,1.41-.61.13-.01.23-.01.35-.01s.22,0,.36.01c.34.05.72.25,1.4.61,2.28,1.22,3.03,2.75,8.54,17.4,2.95,7.86,10.17,28.05,10.06,28.12ZM233.65,7.81c-.44-.31-1.56-.57-2.5-.57-2.04,0-2.89.43-15.85,7.9-5.22,3.01-14.19,8.14-19.93,11.41-8.12,4.62-10.59,6.19-11.14,7.1-.67,1.11-.71,1.95-.7,15.41.01,12.84.08,14.38.66,15.57.86,1.77,2.07,2.35,4.78,2.28,3.79-.1,25.88-4.12,27.3-4.98.94-.57,3.36-5.65,5.78-12.13,5.58-15,12.59-35.02,12.97-37.11.32-1.73-.37-4.18-1.37-4.88ZM222.3,22.01c-.12.33-1.39,3.93-2.82,7.99-1.42,4.06-2.98,8.45-3.45,9.76-.48,1.31-1.81,5.09-2.96,8.4-1.15,3.31-2.11,6.06-2.14,6.11-.05.06-17.94,3.02-18.31,3.02-.08,0-.15-4.23-.14-9.4h0s.01-9.41.01-9.41l14.65-8.4c8.06-4.62,14.82-8.47,15.03-8.54.21-.08.27.12.13.47ZM284.39,174.44c-.49-1.18-34.7-35.55-36.68-36.85-.55-.36-1.58-.66-2.29-.67-1.29,0-24.03,6.32-26.94,7.49-2.84,1.14-3.67,3.32-2.51,6.62,1.5,4.25,10.92,23.52,11.95,24.45,1.47,1.33,8.58,2.17,33.66,3.99,18.62,1.35,20.41,1.3,22.47-.63.95-.89,1.08-2.6.33-4.4h0ZM236.43,168.51l-2.61-.23-3.72-8.06c-2.04-4.43-3.64-8.24-3.56-8.47.13-.33,16.74-5.42,17.42-5.34.1,0,5.65,5.38,12.33,11.92,6.68,6.54,12.14,12.01,12.14,12.14,0,.21-24.51-1.29-32.01-1.96h0ZM180.05,179.2v7.03h-10.37c3.68-1.94,7.16-4.3,10.37-7.03ZM180.05,68.44v21.52c-5.09-4.3-10.9-7.72-17.16-10.08.02-17.18.05-28.44.08-28.44.05,0,3.92,3.83,8.58,8.5l8.5,8.5ZM257.05,86.78c-.71,1.37-2.22,2.79-7.62,7.14-3.72,2.98-8.23,6.56-10.04,7.95-1.8,1.39-9.69,7.54-17.53,13.67-7.83,6.12-14.35,11.14-14.48,11.14-.14,0-1.6-1.49-3.25-3.3-2.83-3.1-2.97-3.33-2.32-3.79,2.17-1.52,38.42-30.16,38.42-30.36-.15-.15-16.05-.72-35.35-1.26-7.54-.2-15.05-.47-16.71-.59l-3.01-.21v-9.06l5.56.06c3.06.03,9.85.18,15.07.33,20.69.61,40.45,1.54,46.14,2.17,5.36.59,6.97,2.51,5.12,6.11ZM214.2,209.61c.02.17-.97,3.99-1.79,5.09-.42.56-.85.97-1.43,1.37-2.5,1.71-6.26-1.43-8.02-3.26-2.01-2.08-4.31-4.33-6.36-6.36-2.18-2.15-8.35-7.68-9.2-10.1-.32-.92-.44-1.73-.6-2.67l-5.47-3.56c-.32.06-.99.45-1.09.45h-14.13c.17.5.56.92.85,1.12,3.09,2.09,6.68,4.42,9.81,6.57,6.85,4.72,13.63,9.51,20.51,14.05,3.23,2.12,7.25,5.32,10.77,6.69,1.49.58,2.84,1.01,4.21.7.22-.05,1.01-.25,1.62-.71,2.9-2.19.26-9.77.31-9.36h0ZM208.91,134.97v77.74l-8.59-8.58-8.58-8.58v-29.77c5.96-9.35,9.09-20.08,9.09-31.24,0-2.71-.18-5.37-.55-8.01.1.1.21.2.31.3l8.32,8.14ZM163.74,216.55c-.52-1.18-15.57-19.35-17.83-21.54-1.13-1.08-2.28-1.58-3.48-1.49-.08-.01-.17-.01-.25-.01-1.11,0-2.18.5-3.22,1.5-2.26,2.18-17.31,20.36-17.83,21.54-.29.65-.44,1.71-.33,2.36.38,2.34,17.81,47.59,18.68,48.52.93.98,1.99,1.55,2.95,1.65h.01c.96-.1,2.02-.67,2.95-1.65.87-.93,18.3-46.18,18.68-48.52.11-.65-.04-1.71-.33-2.36ZM148.63,235.21c-2.04,5.5-3.88,10.39-5.01,13.29v-23.12c1.4-.49,2.41-1.83,2.41-3.4,0-1.99-1.61-3.6-3.6-3.6s-3.6,1.61-3.6,3.6c0,1.57,1.01,2.91,2.41,3.4v23.08c-1.13-2.91-2.96-7.77-4.99-13.25-3.23-8.71-5.85-15.94-5.85-16.11.2-.66,11.61-13.72,11.98-13.72.01,0,.04.01.06.03.03-.02.05-.04.06-.04.37,0,11.78,13.07,11.98,13.72,0,.18-2.62,7.4-5.85,16.12ZM192.8,132.92c-.01-.33-.02-.66-.04-1-.03-.55-.06-1.1-.11-1.65-.03-.32-.06-.64-.09-.95-.04-.42-.09-.84-.15-1.26-.1-.78-.22-1.55-.35-2.31-.06-.35-.13-.7-.2-1.05-.08-.43-.18-.87-.28-1.3-.09-.43-.2-.86-.31-1.29-.08-.32-.16-.64-.26-.96-.14-.53-.29-1.05-.46-1.57-.04-.14-.08-.27-.12-.41-.06-.15-.11-.3-.16-.45-.11-.34-.23-.68-.35-1.02-.36-1.02-.75-2.03-1.18-3.02-.08-.23-.18-.44-.29-.65-.17-.39-.35-.78-.54-1.16-.16-.32-.32-.64-.48-.96-.2-.42-.42-.84-.65-1.26-.05-.09-.1-.19-.15-.28-.05-.08-.09-.17-.14-.25-.18-.32-.36-.63-.55-.95-.11-.2-.23-.39-.35-.59-.15-.26-.31-.51-.47-.76-.06-.11-.13-.22-.2-.33-.08-.12-.15-.23-.22-.34,0-.01-.01-.01-.01-.02-.69-1.05-1.41-2.09-2.18-3.08-.18-.23-.35-.46-.53-.68-.17-.23-.35-.45-.54-.67-.1-.13-.21-.26-.32-.39-.35-.42-.71-.83-1.07-1.24-.26-.3-.53-.59-.8-.88-.26-.28-.52-.55-.79-.83-.23-.24-.46-.47-.7-.7-.39-.4-.8-.78-1.21-1.16-.39-.36-.78-.71-1.17-1.05-.03-.02-.05-.05-.08-.07-.34-.29-.67-.57-1.02-.85-.34-.28-.69-.56-1.04-.83-.71-.55-1.42-1.08-2.16-1.59-.42-.29-.84-.57-1.26-.84-.45-.3-.91-.58-1.37-.86-.32-.2-.65-.39-.98-.58-.28-.16-.55-.32-.83-.46-.11-.07-.22-.12-.32-.18-.33-.18-.66-.35-.99-.52-.8-.41-1.62-.8-2.44-1.17-.24-.11-.47-.21-.71-.3-.01-.01-.02-.02-.03-.02-.32-.14-.64-.27-.96-.4-.35-.14-.71-.28-1.06-.41-.05-.02-.09-.03-.14-.05-.23-.09-.45-.18-.68-.25-.04-.02-.09-.04-.13-.05-.28-.1-.56-.2-.84-.29-.2-.07-.4-.13-.61-.2-.32-.1-.65-.2-.98-.29-.12-.04-.24-.08-.35-.11-.28-.09-.55-.16-.82-.23-.44-.12-.89-.24-1.35-.34l-.75-.18c-.25-.06-.5-.11-.75-.16-.51-.1-1.02-.2-1.53-.29-.94-.18-1.88-.32-2.83-.43-.16-.03-.32-.05-.48-.06-1.8-.19-3.62-.3-5.46-.3-.44,0-.87.01-1.31.02-.26,0-.52.01-.77.03-.1,0-.2,0-.3.01-.3.01-.6.03-.89.05h-.06c-.41.03-.83.06-1.24.1-.32.02-.63.06-.95.09-.08.01-.17.02-.25.03-.2.02-.4.05-.6.07-.08.01-.16.02-.23.03-.72.1-1.44.21-2.15.33-.21.04-.41.07-.62.12-.04.01-.08.01-.12.02-.34.06-.67.13-1,.2-.48.1-.96.21-1.44.33-.47.12-.95.24-1.41.37,0,0-.02,0-.03.01-.41.11-.82.22-1.22.35-2.02.61-3.97,1.34-5.87,2.19-.41.18-.82.37-1.23.57-.51.24-1.01.49-1.5.75-.42.21-.83.43-1.24.66-.2.11-.4.23-.6.34-.85.49-1.68,1-2.5,1.54-.26.17-.52.34-.78.52-.29.19-.58.39-.86.6-.33.23-.65.46-.97.71-.38.28-.76.57-1.13.87-.38.3-.75.6-1.11.91-.32.26-.63.53-.94.81-.08.07-.17.15-.25.22-.3.27-.6.54-.89.82-.12.11-.25.23-.37.35-.32.31-.64.62-.95.93-.32.32-.62.64-.93.97-.31.32-.61.65-.9.98-.05.06-.11.12-.16.18-.08.09-.17.19-.24.28-.22.24-.43.49-.63.74-.04.04-.08.08-.11.12-.15.18-.3.36-.44.54-.36.44-.71.89-1.05,1.34-.25.27-.47.56-.64.88-.34.48-.68.96-1.01,1.45-.06.09-.12.17-.17.26-.23.34-.45.69-.67,1.04-.03.05-.06.1-.09.15-.17.26-.33.53-.49.8-.24.4-.47.8-.7,1.21-.05.1-.11.19-.16.29-.55.99-1.06,2-1.55,3.03-.02.05-.04.09-.06.13-.25.56-.5,1.12-.74,1.69-.5,1.2-.95,2.41-1.36,3.65-.11.3-.21.61-.3.93-.2.62-.38,1.25-.54,1.88-.08.27-.15.53-.21.8-.02.1-.05.2-.07.3-.14.59-.28,1.19-.4,1.79,0,.03-.02.07-.03.11v.02c-.06.28-.11.56-.16.84-.05.26-.09.53-.14.79-.1.63-.2,1.26-.27,1.9-.06.42-.11.85-.15,1.28-.02.19-.04.39-.05.58-.05.47-.08.95-.11,1.43v.03c-.03.59-.06,1.18-.07,1.77-.01.42-.02.85-.02,1.27s.01.88.02,1.32c0,.24.01.49.03.73,0,.33.03.66.05.98.01.32.03.64.06.95.02.33.05.66.09.98.02.23.04.46.07.69.08.75.19,1.5.3,2.23.13.81.28,1.61.44,2.41.01.04.02.08.03.12v.02s.01.03.01.04c.11.53.23,1.06.36,1.58.03.11.06.23.09.35.13.53.28,1.05.43,1.57.09.33.19.66.29.99.53,1.67,1.14,3.31,1.82,4.9.08.23.18.44.29.65.22.49.45.98.69,1.47.15.32.31.64.48.96.07.13.13.26.2.38.07.13.13.26.21.39.13.25.27.51.41.76.13.24.26.47.4.71.16.28.32.55.49.82.27.45.55.9.84,1.34.29.46.59.9.9,1.34.15.22.3.44.46.65,0,0,0,.01.01.01.26.38.53.74.81,1.1.01.02.03.04.04.06.01.01.02.03.03.04.07.1.15.19.23.29.24.31.48.62.74.93.04.06.09.12.14.18s.11.13.16.19c.05.05.09.11.14.16.3.37.61.72.93,1.08.03.04.07.08.1.12.03.03.05.06.08.09.35.38.7.77,1.05,1.14.02.02.03.03.05.05.19.2.38.4.58.6,1.43,1.45,2.96,2.82,4.56,4.09.34.28.69.55,1.05.81.49.37.99.73,1.49,1.08.41.29.82.56,1.23.84.03.02.07.04.1.06.45.29.91.58,1.37.86.38.23.77.46,1.16.69.28.15.56.31.83.45.39.22.79.43,1.18.63.4.21.81.41,1.21.6.41.2.82.39,1.23.57.15.07.3.13.45.19.37.17.75.33,1.13.48.32.13.65.26.98.38.41.16.83.32,1.26.46.43.15.86.3,1.3.44.61.2,1.22.38,1.84.55.37.11.75.21,1.12.3.05.01.1.03.15.04.41.1.83.2,1.25.29.4.09.8.18,1.21.25.01,0,.03.01.04.01.22.05.45.09.68.13.03,0,.07,0,.1.02.96.18,1.94.32,2.92.44.2.04.4.06.59.07,1.78.19,3.59.3,5.42.3,1.04,0,2.08-.03,3.11-.09.9-.06,1.79-.14,2.67-.24.06-.01.12-.01.18-.02.1-.01.21-.02.31-.04.43-.05.86-.11,1.29-.18.37-.05.74-.11,1.11-.18.09-.02.19-.03.28-.05.11-.02.22-.04.33-.06l.93-.18c.13-.03.26-.06.39-.09.06,0,.12-.02.18-.04.35-.07.69-.15,1.03-.23.02-.01.05-.01.07-.02.54-.13,1.08-.27,1.61-.42.62-.17,1.23-.35,1.84-.55.03-.01.06-.02.09-.03.01,0,.02-.01.03-.01.4-.13.79-.26,1.18-.4.44-.15.87-.31,1.29-.47.86-.32,1.7-.68,2.53-1.05.41-.18.82-.37,1.23-.57.4-.19.81-.39,1.2-.59.58-.29,1.15-.6,1.72-.92.52-.29,1.04-.6,1.55-.91.04-.02.08-.05.12-.07.42-.26.84-.53,1.26-.8.25-.16.51-.33.76-.51.24-.16.48-.32.71-.49.68-.48,1.34-.97,1.99-1.47.02-.02.05-.04.07-.06.26-.21.52-.42.78-.63.43-.35.85-.7,1.26-1.07.2-.17.41-.35.6-.52.04-.03.07-.07.11-.1.5-.46,1-.92,1.48-1.4.44-.42.86-.86,1.28-1.3.29-.31.58-.62.86-.93.06-.07.13-.14.19-.21.03-.04.06-.07.09-.11.19-.21.37-.41.54-.62.18-.21.35-.41.53-.63.21-.25.41-.49.61-.74.3-.37.59-.75.88-1.13.23-.26.43-.53.59-.83.25-.35.5-.7.74-1.06.25-.36.49-.72.72-1.08.48-.73.93-1.47,1.36-2.22.17-.3.34-.59.51-.9.03-.05.06-.11.09-.16.22-.41.44-.82.65-1.23.26-.51.51-1.02.75-1.53.03-.08.07-.16.11-.24.25-.55.49-1.09.72-1.64.19-.46.38-.91.55-1.38.01-.01.01-.02.02-.04.11-.27.21-.55.31-.83.1-.26.19-.53.27-.79.12-.33.23-.66.34-.99.01-.04.02-.08.04-.12.1-.32.2-.65.3-.98.12-.42.24-.85.36-1.28.13-.48.25-.97.37-1.45.09-.38.17-.76.25-1.14v-.02c.16-.73.29-1.46.41-2.2.06-.36.12-.72.17-1.08.05-.38.1-.76.15-1.15.06-.48.11-.96.15-1.44.01-.08.01-.17.02-.25.02-.16.03-.32.04-.48.03-.37.05-.74.07-1.11.02-.44.04-.88.05-1.32.01-.44.02-.89.02-1.33,0-.54-.01-1.08-.03-1.62ZM149.96,94.01c.31.06.62.12.93.19.1.02.21.04.32.07.96.2,1.9.44,2.84.72.13.04.26.08.4.12.02,0,.05,0,.07.02.43.13.84.27,1.27.41.49.17.99.35,1.47.54.45.17.9.36,1.34.54.56.24,1.11.49,1.65.75.06.03.11.06.17.08.33.17.67.33,1,.51.5.25.99.52,1.47.8.17.1.34.2.5.29.18.11.35.21.52.31.21.13.41.26.61.39.24.15.47.3.7.45.28.19.56.38.84.58.22.15.44.3.65.46.34.24.67.49,1,.75.26.21.53.42.79.63.53.43,1.04.87,1.55,1.33.24.22.48.44.72.67,1.29,1.21,2.5,2.51,3.62,3.89.17.21.34.43.51.64.28.36.56.73.83,1.1.33.45.66.91.97,1.38h-36.92l10.18-17.62ZM134.49,120.8h15.88l.89,1.55,7.05,12.19-7,12.12-.94,1.62h-15.88l-.92-1.59-7.02-12.15,7.07-12.23.87-1.51ZM113.19,105.51c.22-.23.45-.46.69-.68.24-.24.48-.47.73-.69.18-.16.35-.32.53-.48.18-.15.36-.31.54-.46.32-.28.65-.56.99-.82.45-.37.92-.72,1.39-1.07.34-.25.69-.5,1.04-.75.02,0,.03-.02.05-.03.35-.24.71-.48,1.08-.72.57-.37,1.16-.72,1.75-1.06.08-.05.17-.09.25-.13.37-.22.74-.42,1.11-.61.31-.16.61-.32.92-.46.03-.02.06-.04.09-.05.24-.12.47-.23.71-.34.36-.17.73-.34,1.1-.49.36-.16.72-.31,1.09-.45.08-.04.16-.07.25-.1.17-.07.35-.14.53-.2.22-.09.45-.18.68-.26.24-.08.48-.16.73-.24.35-.12.71-.24,1.07-.34.36-.11.72-.22,1.08-.31.08-.02.17-.05.25-.07.43-.12.87-.23,1.31-.33.17-.04.34-.08.51-.12.61-.13,1.22-.25,1.84-.35.38-.07.77-.13,1.16-.18.54-.08,1.09-.14,1.64-.2h.03c.46-.05.93-.09,1.4-.12l-6.08,10.53-11.66,20.19-.73,1.26-10.16-17.61c.67-.78,1.36-1.53,2.09-2.26ZM103.56,148.28c-.16-.46-.32-.92-.46-1.39-.06-.16-.1-.32-.15-.49-.01-.03-.02-.05-.02-.08-.14-.43-.27-.88-.38-1.32-.15-.57-.29-1.15-.42-1.74-.12-.54-.23-1.1-.32-1.66-.09-.52-.17-1.04-.24-1.56-.03-.15-.05-.31-.06-.47-.03-.25-.06-.49-.08-.74-.01-.1-.02-.19-.03-.29,0-.08-.02-.17-.03-.26-.02-.17-.03-.33-.04-.49-.03-.29-.05-.57-.05-.86,0-.12-.02-.23-.02-.35-.02-.21-.03-.42-.03-.63-.01-.26-.01-.52-.02-.78v-.37c-.01-.08-.01-.18-.01-.26,0-.24,0-.49.01-.73,0-.44.02-.88.04-1.32.02-.24.03-.47.04-.7.01-.11.02-.22.03-.33.01-.28.04-.57.07-.85.05-.53.11-1.05.18-1.57.07-.52.15-1.04.24-1.56.06-.35.12-.69.19-1.02.07-.34.14-.68.22-1.02.15-.68.32-1.35.51-2.01.09-.33.18-.66.29-.98.09-.33.2-.66.31-.98.43-1.3.93-2.57,1.49-3.81.2-.45.41-.9.63-1.34l16.54,28.64,1.92,3.32h-20.35ZM134.9,175.07c-.46-.09-.92-.18-1.38-.29-.39-.08-.78-.18-1.16-.27-.39-.09-.77-.19-1.15-.31-.76-.21-1.52-.44-2.26-.7-.05-.02-.1-.04-.15-.05h-.01s-.05-.02-.08-.03c-.11-.04-.22-.08-.32-.12-.33-.12-.66-.24-.99-.38-.04-.01-.07-.03-.11-.04-.13-.05-.27-.1-.4-.16-.32-.12-.63-.26-.94-.39-.12-.06-.23-.11-.34-.16-.19-.08-.38-.17-.57-.26-.02,0-.03-.01-.04-.02-.46-.21-.92-.43-1.37-.67-.47-.24-.92-.48-1.37-.74-.09-.05-.18-.1-.27-.15-.35-.2-.69-.4-1.03-.61-.34-.21-.68-.42-1.01-.64-.2-.12-.39-.25-.59-.39-.19-.13-.38-.26-.56-.39-1.27-.88-2.49-1.84-3.64-2.87-.28-.24-.56-.49-.83-.75-.29-.26-.58-.53-.86-.82-.26-.25-.53-.52-.78-.79-.26-.27-.51-.53-.76-.81-.3-.33-.6-.67-.89-1.01-.26-.3-.51-.61-.76-.92-.38-.46-.74-.94-1.09-1.42-.36-.48-.7-.97-1.03-1.46h36.92l-10.18,17.62ZM171.67,163.56c-.22.23-.45.46-.69.68-.24.24-.48.47-.73.69-.18.16-.35.32-.53.48-.18.16-.36.31-.54.46-.32.28-.65.56-.99.82-.57.46-1.15.91-1.75,1.33-.3.22-.6.43-.9.63-.3.21-.6.41-.91.61-.22.14-.44.28-.67.42-.35.22-.72.44-1.08.65-.29.16-.58.32-.88.48-.3.17-.6.33-.9.48-.61.31-1.22.6-1.84.88-.32.15-.65.29-.98.43-.31.12-.61.25-.92.36-.21.09-.42.17-.63.24-.22.09-.44.17-.66.24-.05.02-.1.04-.15.05-.37.13-.74.25-1.12.37-.37.12-.75.24-1.13.34-.3.09-.58.17-.88.24h-.01c-.47.13-.94.24-1.42.35-.38.09-.77.17-1.16.24-.22.04-.44.08-.66.12-.37.07-.75.13-1.13.18-.38.06-.76.11-1.15.15-.27.04-.53.06-.8.09-.44.04-.88.08-1.33.11l6.21-10.75,11.54-19.98.72-1.25,10.16,17.6c-.67.78-1.36,1.53-2.09,2.26ZM183.66,134.81c0,.32-.01.63-.02.95-.01.41-.03.81-.05,1.22-.05.88-.13,1.76-.24,2.63-.04.32-.08.63-.13.95-.06.41-.13.83-.2,1.24-.07.36-.14.73-.21,1.09-.08.39-.16.77-.26,1.15-.16.68-.34,1.36-.53,2.02-.13.45-.27.9-.42,1.35-.12.37-.24.73-.38,1.1-.11.31-.22.61-.35.92-.25.66-.53,1.32-.82,1.97-.2.46-.42.91-.64,1.36l-16.53-28.62-1.93-3.34h20.35c.18.51.35,1.03.51,1.55.02.07.05.15.07.22.07.21.12.42.18.63,0,.01.01.03.01.04.1.31.18.63.27.95.08.31.16.61.22.92.04.14.07.29.1.43.05.17.09.35.12.53.04.18.07.36.1.55.05.22.09.44.13.66.05.22.09.45.11.67.01.05.02.09.03.14.05.28.1.57.13.86v.02c.04.24.07.48.09.73.03.24.06.5.08.75.04.27.06.55.08.82.02.29.03.57.05.86.04.56.06,1.13.06,1.7h0c.02.25.02.47.02.71v.27ZM186.69,144.78h-.01s.01-.01.01-.01h0Z"/></g></svg>